<?xml version="1.0" encoding="UTF-8"?>
<svg id="Layer_1" data-name="Layer 1" xmlns="http://www.w3.org/2000/svg" viewBox="0 0 612 370.11">
  <defs>
    <style>
      .cls-1 {
        fill: #a99cb3;
      }

      .cls-2 {
        fill: #2c3235;
      }

      .cls-3 {
        fill: #f2f3ef;
      }

      .cls-4 {
        fill: #fefefe;
      }

      .cls-5 {
        fill: #e6e9e3;
      }

      .cls-6 {
        fill: #e4d9e7;
      }

      .cls-7 {
        fill: #8d978a;
      }
    </style>
  </defs>
  <path class="cls-4" d="M0,0l612,2.35v367.76L0,367.76V0ZM177.76,164.09c-11.16,2.78-28.39,12.16-34.04,21.77-1.41,2.39-2.86,4.97-1.98,7.82,2.42-1.94,2.93-4.76,4.64-6.91,8.29-10.42,19.11-16.23,31.27-20.24l.03,39.08c0,6.63-.94,14.84-7.29,15.23l-8.95.55c-.28.88-.26,1.73-.07,2.51h43.05c.29-.94.23-1.62,0-2.5l-9.27-.6c-6.19-.4-6.93-8.4-6.93-14.73v-42.22c3.38-.52,6.39-1.06,9.89.33,1.89.75,3.4,1.72,3.88,3.96.83,3.83,2.53,7.54,5.31,10.29,4.65,4.61,10.54,3.91,16.68,1.64.59-.22.93-.44.94-.98.02-1.18-3.8-.75-8.4-5.99-2.84-3.24-6.17-5.86-10.18-7.44-2.14-.84-4.27-1.16-6.29-2.8,2.66-.48,5.08-.39,7.67-.15l15.39,1.41,21,4.05c-2.39,4.86-5.22,8.74-8.16,12.87-4.32,6.05-5.06,13.4-2.12,20.23.59,1.36,1.76,2.84,1.82,4.43-.2,1.73-.95,4.53-2.19,5.85-4,4.29-7.52,8.39-10.58,13.4-.93,1.52-2.57,2.7-2.75,4.73l-.55,5.94c-.04.46.72.77.94.61.83-.61,1.81-5.48,5.61-11.39s12.65-18.75,18.14-16.45l10.49,4.38c2.84,1.19,6.17,1.09,9.07.88-.12,3.98-2.65,7.01-6.73,7.33l-7.01.55c-.5.37-.54,1.9-.12,2.4l13-.16,68.19.1,2.18-27.28c.06-.75-.89-.81-1.22-.75-.51.09-1.09.49-1.18,1.26-.4,3.67-1.79,6.78-3.28,10.09-3.09,6.86-9.08,11.36-16.83,12.09-10.17.97-20.46.95-30.6-.12-2.92-.31-4.94-2.28-4.9-4.83,0-.41-.07-.82-.42-1.05l.02-.9c.11-.23.1-.33,0-.55-.08-.32-.04-.74-.08-1.19l8.88-5.04-.11-1.19c-3.07.53-5.97.12-8.88-.51l.08-14.58,10.87-4.01c1.82-.67,4.28-1.34,5.68.58,1.14,1.56,1.41,4.03,1.68,5.96,1.08,7.68,6.27,13.27,13.83,14.78l12.11,2.43c-1.95-2.73-2.96-4.91-3.56-7.68-1.82-8.34-8.23-13.86-16.19-15.64l.12-.95,6.46,1.28c7.89,1.57,15.5,2.84,23.55,3.34,8.03.49,14.14,6.28,16.3,13.92l2.09,7.41c2.35,5.13,7.69,8.4,13.74,6.85-2.82-2.4-5.32-4.28-7.19-7.21l-7.97-12.56c-2.31-3.64-5.31-6.3-9.05-8.27l15.47-1.32c5.41,16.11,17.94,28.56,33.97,34.22,18.31,6.48,40.75,4.62,57.41-5.3l2.92-23.79c-.91-.51-1.61-.46-2.68-.33-3.89,13.83-11.13,25.44-25.96,28.51-25.23,5.23-46.34-12.39-54.3-35.65l10.31-3.78c1.55-.57,4.87-1.45,6.07.17,6.69,9.06,15.56,9.23,25.92,5.97,1.57-.49,3.3.36,4.83-1.31-2.39-1.08-4.08-2.3-5.68-3.82-4.95-4.68-11.49-6.26-18.15-5-2.37.44-4.38,1.74-7.07,1.51,5.95-3.29,11.73-6.07,16.88-10.44.51-.43.84-1.11,1.41-1.22.44-.08,5.38,2.11,10.12,2.22.49-.4.24-1.53.12-1.93,5.34,1.51,11.93-.04,11.83-2.99-.05-1.63-3.11-2.65-4.98-2.34l-9.36,1.56c-.75.12-1.52.38-1.67.95-.25.04-.66.2-1.17-.21.6-.56,1.57-.99,1.89-1.74,6.59-.93,15-5.11,12.94-11.27,4.49-3.3,5.51-8.38,3.2-8.95-2.87-.71-5.86,1.18-7.79,3.21-4.37,4.59-5.51,10.21-7.8,10.9-1.15.35-2.36,1.17-3.24,2.11-.33-1.01.06-1.91.56-2.86l4.79-9.1c.74-1.4,1.24-3.9-.41-4.82-1.22-.69-2.96.66-3.86,1.49-3.25,3-3.99,7.15-4.29,11.29-.98-.01-1.27.59-1.54,1.45-.98,3.2-1.51,6.18-.22,9.71-5.41,4.17-10.75,8.31-17.57,10.97,5.25-5.79,8.89-12.26,6.9-19.65-.73-2.69-.69-5.05-.46-8.23-8.22,6.04-12.28,14.07-9.97,23.54.45,1.83.64,3.71.16,5.6-4.34,2.45-8.81,4.2-13.43,5.14-1.13-4.49-2.24-8.76-2.38-13.18,4.04-4.16,6.61-9.84,7.12-15.86-1.14-.7-3.56,2.14-7.04,3.45-.42-.57-.17-.92-.24-1.14.82-9.08,3.32-17.83,8.16-25.89,10.03-16.71,30.21-22.98,48.71-18.42,14.27,3.52,22.19,13.78,25.48,27.75.14.6,2.42.49,2.41-.11l-2.14-17.95-.48-6.88c-29.94-15.52-71.92-8.92-88.04,22.59-4.38,8.55-6,17.78-6.37,27.09-1.62.61-3.08,1.92-4.2,3.5l-7.52,10.64c-4.39,6.22-7.1,9.01-15.59,7.03,1.6-1.43,3.56-1.44,3.76-3.56-4.44,2.43-9.1,3.22-13.87,2.19l-16.99-3.66c6.72-3.78,12.31-8.31,17.51-13.77,2.43-2.55,10.74,2.15,18.6-3.53,3.93-2.84,7.5-6.79,9.29-11.69-3.2,1.09-5.6,2.53-8.72,2.41-4.98-.2-9.18,1.56-13.69,4.46,1.89-5,4.37-8.94,5.23-14.1,3.52-.66,6.72-1.52,9.07-4.36-.53-.67-1.27-1.31-1.88-1.51,5.67-3.64,12.71-1.87,17.78-7.73,1.36-1.58,1.96-4.51-.19-5.55-4.01-1.94-7.11,4.04-11.82,6.01-3.71,1.55-4.96,3.78-7.21,4.87.5-.8.09-2.11-.91-2.47,4.77-7.08,10.48-20.15,4.67-26.61-4.46-.89-6.77,6.37-5.62,11.37,1.51,6.55-1.04,10.6-2.14,16.05-.47-.18-.81-.21-1.06-1.01l-.94-2.98c-.07-.23-.77-.34-.94-.19-.18.16-.49.57-.57,1.03l-.8,4.2c-2.2-3.49-4.61-7.07-5.32-11.38-.63-3.86-.37-11.28-4.48-11.29s-6.57,10.34,3.82,20.78c1.05,1.06,2.38,1.64,2.82,3-2.81.13-.1,5.63,4.49,7.5-1.74,5.18-3.34,10.34-6.67,15.06.38-5.29-.41-9.38-4.11-12.51-3.09-2.91-5.49-6-7.41-10.49-3.8,7.99-3.81,17.82,4.27,21.28,1.73.74,3.76,1.95,4.42,3.74.62,1.66-.66,3.32-1.72,4.41-4.65,5.01-9.55,9.62-16.26,12.5,5.59-9.24,4.95-19.97-1.67-28.45-4.08,3.68-5.99,9.18-4.7,14.38,1.59,6.42,7.67,11.96,3.03,15.32l-15.55-4.79.02-50.2c0-5.61,1.02-11.96,6.03-12.28l7.77-.49c.71-.04.74-2.43.08-2.5l-19.6.53-18.67-.52c-.59.03-.68,2.23-.1,2.4l7.48.58c5.24.41,6.39,6.19,6.4,11.8l.1,46.89c-.59.16-1.33.08-2.15-.22l-11.56-4.19-2.27-7.43c-.15-.49-.6-.67-1-.59-.31.06-.57.28-.72.82l-1.64,6-19.51-3.83c-9.08-1.79-17.9-1.52-27.55-2.23,8.11-1.66,15.78-4.62,20.95-11.26,1.95-2.5,3.58-5.02,4.01-8.44-8.25,1.16-15.24.8-20.85,7.29-2.71,3.13-3.84,7.03-5.76,10.55-1.61,2.94-5.44,2.61-7.96,3.24l.08-39.68c.02-4.15,2.59-7.41,6.83-7.76,5.13-.42,10.33-.46,15.5.17,12.46,1.51,13.49,11.52,14.81,22.22.08.67,2.29.67,2.63.02-.43-9.93.13-19.75,1.6-29.85.08-.55-1.47-.64-1.92-.35-1.14.73-1.04,2.68-5.6,3.4-5.67.89-11.02.61-16.81.61h-43.95c-5.76.01-11.14.18-16.77-.61-4.12-.58-3.66-4.6-5.94-3.34-.53.29-.29,1.12-.36,1.81l-2.79,28.56c.74.45,2.19.53,2.71,0,1.73-10.98,5.96-21.66,17.74-22.63,4.91-.41,9.84-.4,14.77-.08,4.1.26,6.71,3.15,6.73,7.38l.18,42.76ZM221.81,272.46l.1-19.97c1-1.59,4.67-1.19,6.04-.06,1.72,1.41,1.32,3.14,2.44,5.23l.66-8.79c-1.34.89-2.16,1.58-3.53,1.57l-15.37-.1-2.56-1.13-.23,8.24c1.5-1.33,1.01-3.03,2.1-4.32,1.58-1.87,4.63-2.13,6.95-1v18.53c0,1.17-.16,2.18-.96,2.75-.65.47-1.89-.16-2.72,1.17l11.01-.03c-.95-1.4-3.93-.5-3.92-2.1ZM197.91,262.53c0-7.11-5.76-12.87-12.87-12.87s-12.87,5.76-12.87,12.87,5.76,12.87,12.87,12.87,12.87-5.76,12.87-12.87ZM268.47,262.54c0-7.11-5.76-12.87-12.88-12.87s-12.88,5.76-12.88,12.87,5.76,12.87,12.88,12.87,12.88-5.76,12.88-12.87ZM299.97,266.21c1.25,2.28.65,4.89-.13,6.99-4.99,2.28-10.66.22-13.39-4.56-1.95-3.41-2.27-7.52-1-11.27,1.75-5.17,7.18-7.52,12.34-5.78,2.72.91,3.78,3.27,5.31,6.1.74-2.31.02-4.21-.33-6.33-4.53-1.72-9.48-2.21-13.92-.25-5.85,2.58-8.83,8.42-7.46,14.72,1.11,5.1,5.79,8.67,11.01,9.21,3.95.41,7.71-.09,11.44-1.1l.03-7.79c.59-.5,1.8-.31,2.28-1.48l-9.31-.2c-.37,0-.81.18-.61,1.04.68.03,3.15-.37,3.73.69ZM359.74,262.95l7.31.11,4.22,10c-.92.69-2.06.39-2.73,1.69l9.79-.18c-2.52-1.25-3.37-2.43-4.35-4.48l-9.92-20.81-9.59,21.95c-.81,1.85-1.96,2.35-4.19,3.09l8.81.43c.3.01.69-.03.85-.11s.19-.83.02-.83h-.92c-.94-.02-1.67-.43-2.09-.86-.52-.53-.87-1.5-.52-2.31l3.3-7.72ZM110.08,251.91c2.41-1.1,4.42-.89,6.21.43,2.7,1.99,3.11,7.55.28,10.14-1.42,1.31-3.41,1.34-5.37,1-.25.21-.23.92-.07,1.04,3.51.46,7.41-.24,9.47-3.05,1.69-2.31,2.02-5.28.71-7.75-1.04-1.97-3.62-3.45-6.27-3.38l-11.75.29c.78,1.15,3.35.62,3.36,1.81l.1,19.74c0,1.74-2.09,1.38-3.44,2.22l10.51.45c.77-.22.34-1.52-.6-.87-1.01-.12-1.83-.24-2.43-.64-.53-.35-.85-1.26-.84-2.15l.16-19.26ZM160.16,274.58c-.93-1.27-2.07-.82-2.52-1.2-.59-.49-.8-1.32-.79-2.23l.07-18.24c0-1.7,2.19-1.37,3.49-2.12-3.2-.86-6.52-.11-9.7-.42-.23-.02-.35.78-.18.87.16.08.58.09.91.08,1.43-.02,2.3.84,2.3,2.18l.02,7.67-13.81.02.26-9.3c1.13-.47,2.43-.09,3.21-1.42l-10.07.12c.83,1.29,2.26.68,2.76,1.09.68.55.81,1.32.81,2.24l-.03,17.25c0,1.08-.24,1.99-1.12,2.45-.47.25-1.71-.3-2.38.89l8.46.24c.47.01.89.09,1.22-.23.87-.84-1.68-.57-2.55-1.29-.32-.27-.54-.92-.54-1.6l.02-9.13h13.78s-.13,10.08-.13,10.08c-.02,1.25-2.32.65-3.34,1.95l9.87.06ZM323.67,263c1.02-.41,3.31-.65,3.95.32,2.65,4.03,4.86,7.97,8.43,11.28,2.09.02,4.12.57,6.52-.24-1.58-1.1-3.2-.81-4.3-1.99-3.08-3.3-5.8-6.74-8.08-10.69,3.54-2.55,5.07-6.22,3.17-8.99-.72-1.05-2.4-2.31-4.16-2.28l-12.29.2c.79,1.11,2.96.57,3.39,1.57l.11,19.96c0,1.62-1.99,1.48-3.33,2.23l9.62.45c.3-.55.16-.69.09-.82-.09-.18-.49-.27-.8-.22-1.44.21-2.36-.76-2.35-2.14l.04-8.63ZM394.85,272.1l.11-20.02c1.28-1.35,4.15-1.01,5.73.04,2.96,1.97,3.7,7.42.72,10.41-1.59,1.59-3.6.77-5.95,1.48,3.99,1.71,8.73-.12,10.58-3.71,1.12-2.18,1.1-4.84-.16-6.87-.92-1.47-3.07-3.08-5.31-3.05l-12.49.19c.87,1.21,2.92.65,3.42,1.65l-.02,20.68c-.19.99-2.61.5-3.37,1.54l10.15.34c.4.01.63-.05.81-.29.82-1.12-4.23-.05-4.22-2.39ZM445.29,274.49c-.95-1.15-3.48-.7-3.48-1.84l.03-20.25c0-1.28,2.72-.52,3.54-1.78l-9.92-.24c-.21,0-.29.75-.13.83s.51.08.84.06c1.47-.09,2.36.79,2.36,2.18v7.77s-13.7,0-13.7,0l.04-8.28c0-1.75,2.08-1.28,3.48-2.15l-10.13-.38c.85,1.46,2.16.9,3.37,1.59v20.71c-.01,1.09-2.57.63-3.3,1.79l8.75.32c.39.01.74-.02.89-.11s.18-.79,0-.85-.64-.02-.94-.02c-1.33,0-2.24-.86-2.23-2.16l.08-9.17,13.65-.09-.04,9.68c0,1.12-1.09,1.95-2.24,1.71-.64-.13-1.07.05-.84.95l9.91-.23ZM475.06,253.17c.99-1.54,2.7-1.07,4.37-2.64l-8.21-.17c-.44,0-.55.54-.38.71.48.48,1.89.17,2.17,1.24.1.38.03.91-.24,1.35l-4.87,8.03-6.38-9.76c.87-.51,1.84-.35,2.4-1.47l-9.26-.1c.43,1.57,2.25.95,2.86,1.71,2.69,3.88,5.68,7.39,7.46,11.7,1.05,2.54.21,5.94.15,8.72-.03,1.31-2.41.76-3.31,2.04l10.37-.03c-.93-1.27-3.42-.55-3.44-1.92-.06-3.14-.72-6.49.2-9.43,1.16-3.71,4.05-6.77,6.12-10Z"/>
  <g>
    <path class="cls-2" d="M445.29,274.49l-9.91.23c-.23-.9.2-1.08.84-.95,1.15.24,2.24-.59,2.24-1.71l.04-9.68-13.65.09-.08,9.17c-.01,1.3.9,2.15,2.23,2.16.3,0,.77-.04.94.02s.15.76,0,.85-.51.13-.89.11l-8.75-.32c.72-1.16,3.29-.7,3.29-1.79v-20.71c-1.2-.69-2.51-.12-3.36-1.59l10.13.38c-1.4.87-3.48.4-3.48,2.15l-.04,8.28h13.71s0-7.77,0-7.77c0-1.39-.88-2.27-2.36-2.18-.33.02-.69.02-.84-.06s-.08-.83.13-.83l9.92.24c-.82,1.25-3.54.5-3.54,1.78l-.03,20.25c0,1.14,2.54.69,3.48,1.84Z"/>
    <path class="cls-2" d="M160.16,274.58l-9.87-.06c1.02-1.3,3.32-.69,3.34-1.95l.13-10.1h-13.78s-.02,9.15-.02,9.15c0,.67.22,1.33.54,1.6.87.72,3.43.45,2.55,1.29-.33.32-.75.24-1.22.23l-8.46-.24c.67-1.19,1.91-.64,2.38-.89.88-.46,1.12-1.37,1.12-2.45l.03-17.25c0-.92-.13-1.68-.81-2.24-.5-.41-1.93.2-2.76-1.09l10.07-.12c-.77,1.33-2.08.95-3.21,1.42l-.26,9.3,13.81-.02-.02-7.67c0-1.34-.87-2.2-2.3-2.18-.33,0-.75,0-.91-.08-.17-.09-.05-.89.18-.87,3.18.31,6.5-.44,9.7.42-1.3.75-3.48.42-3.49,2.12l-.07,18.24c0,.91.2,1.74.79,2.23.45.37,1.59-.07,2.52,1.2Z"/>
    <path class="cls-2" d="M323.67,263l-.04,8.63c0,1.37.92,2.35,2.35,2.14.31-.05.71.04.8.22.07.13.22.27-.09.82l-9.62-.45c1.34-.75,3.34-.61,3.33-2.23l-.11-19.96c-.43-.99-2.6-.46-3.39-1.57l12.29-.2c1.76-.03,3.44,1.23,4.16,2.28,1.9,2.77.37,6.44-3.17,8.99,2.28,3.95,5,7.39,8.08,10.69,1.11,1.18,2.72.9,4.3,1.99-2.4.81-4.43.26-6.52.24-3.57-3.31-5.78-7.25-8.43-11.28-.64-.97-2.93-.74-3.95-.32ZM329.48,260.4c2.08-2.15,1.75-5.78-.04-7.94-1.11-1.34-4.66-1.9-5.47-.41-.99,3.1-.35,6.35-.3,9.36,1.95.23,4.33.53,5.81-1.01Z"/>
    <path class="cls-2" d="M197.91,262.53c0,7.11-5.76,12.87-12.87,12.87s-12.87-5.76-12.87-12.87,5.76-12.87,12.87-12.87,12.87,5.76,12.87,12.87ZM192.29,270.67c3.15-4.63,2.48-10.88-.16-15.24-1.59-2.62-4.18-3.93-6.83-4.17s-5.67.34-7.42,2.91c-3.27,4.84-2.82,11.79.85,16.39,3.38,4.24,10.33,4.83,13.55.1Z"/>
    <path class="cls-2" d="M299.97,266.21c-.58-1.05-3.05-.66-3.73-.69-.21-.87.24-1.05.61-1.04l9.31.2c-.48,1.17-1.69.98-2.28,1.48l-.03,7.79c-3.72,1.01-7.49,1.51-11.44,1.1-5.22-.54-9.9-4.12-11.01-9.21-1.38-6.3,1.61-12.14,7.46-14.72,4.45-1.96,9.39-1.47,13.92.25.35,2.12,1.07,4.02.33,6.33-1.53-2.83-2.59-5.18-5.31-6.1-5.16-1.74-10.59.61-12.34,5.78-1.27,3.75-.95,7.86,1,11.27,2.73,4.77,8.41,6.84,13.39,4.56.78-2.1,1.38-4.71.13-6.99Z"/>
    <path class="cls-2" d="M110.08,251.91l-.16,19.26c0,.89.31,1.8.84,2.15.6.4,1.42.52,2.43.64.94-.65,1.37.65.6.87l-10.51-.45c1.35-.84,3.45-.47,3.44-2.22l-.1-19.74c0-1.19-2.57-.65-3.36-1.81l11.75-.29c2.65-.06,5.23,1.41,6.27,3.38,1.31,2.47.98,5.45-.71,7.75-2.06,2.81-5.96,3.51-9.47,3.05-.15-.12-.18-.82.07-1.04,1.96.34,3.95.31,5.37-1,2.82-2.59,2.41-8.14-.28-10.14-1.79-1.32-3.79-1.53-6.21-.43Z"/>
    <path class="cls-2" d="M394.85,272.1c-.01,2.34,5.04,1.27,4.22,2.39-.18.24-.41.31-.81.29l-10.15-.34c.76-1.04,3.17-.55,3.37-1.54l.02-20.68c-.5-1.01-2.54-.44-3.42-1.65l12.49-.19c2.24-.03,4.39,1.57,5.31,3.05,1.26,2.03,1.28,4.69.16,6.87-1.85,3.59-6.59,5.42-10.58,3.71,2.36-.71,4.37.11,5.95-1.48,2.98-2.99,2.24-8.44-.72-10.41-1.58-1.05-4.45-1.39-5.73-.04l-.11,20.02Z"/>
    <path class="cls-2" d="M359.74,262.95l-3.3,7.72c-.35.81,0,1.78.52,2.31.42.43,1.15.84,2.09.85h.92c.17.01.13.76-.02.84s-.54.12-.85.11l-8.81-.43c2.23-.75,3.38-1.24,4.19-3.09l9.59-21.95,9.92,20.81c.98,2.05,1.83,3.23,4.35,4.48l-9.79.18c.67-1.31,1.81-1,2.73-1.69l-4.22-10-7.31-.11ZM366.41,261.53l-3.3-6.81-2.86,6.91,6.15-.1Z"/>
    <path class="cls-2" d="M221.81,272.46c0,1.6,2.97.7,3.92,2.1l-11.01.03c.83-1.33,2.07-.7,2.72-1.17.8-.58.96-1.59.96-2.75v-18.53c-2.31-1.13-5.36-.87-6.95,1-1.09,1.29-.6,2.99-2.1,4.32l.23-8.24,2.56,1.13,15.37.1c1.37,0,2.19-.68,3.53-1.57l-.66,8.79c-1.12-2.1-.72-3.82-2.44-5.23-1.37-1.13-5.04-1.53-6.04.06l-.1,19.97Z"/>
    <path class="cls-2" d="M475.06,253.17c-2.06,3.22-4.96,6.28-6.12,10-.92,2.94-.25,6.28-.2,9.43.03,1.37,2.51.65,3.44,1.92l-10.37.03c.91-1.28,3.28-.74,3.31-2.04.07-2.78.9-6.18-.15-8.72-1.78-4.31-4.77-7.81-7.46-11.7-.61-.75-2.44-.14-2.86-1.71l9.26.1c-.56,1.12-1.54.96-2.4,1.47l6.38,9.76,4.87-8.03c.27-.44.34-.97.24-1.35-.28-1.07-1.69-.77-2.17-1.24-.16-.16-.06-.71.38-.71l8.21.17c-1.66,1.57-3.38,1.1-4.37,2.64Z"/>
    <path class="cls-3" d="M329.48,260.4c-1.48,1.53-3.86,1.23-5.81,1.01-.05-3.01-.69-6.26.3-9.36.81-1.49,4.36-.93,5.47.41,1.79,2.16,2.12,5.79.04,7.94Z"/>
    <path class="cls-4" d="M192.29,270.67c-3.22,4.73-10.18,4.13-13.55-.1-3.67-4.6-4.12-11.55-.85-16.39,1.74-2.58,4.76-3.15,7.42-2.91s5.24,1.55,6.83,4.17c2.64,4.36,3.31,10.61.16,15.24Z"/>
    <g>
      <path class="cls-2" d="M268.47,262.54c0,7.11-5.76,12.87-12.88,12.87s-12.88-5.76-12.88-12.87,5.76-12.87,12.88-12.87,12.88,5.76,12.88,12.87ZM262.38,271.3c4.03-5.13,3.17-12.71-.87-17.31-2.57-2.93-6.56-3.47-9.92-2.17-3.11,1.2-4.94,4.45-5.26,8.01-.41,4.61.66,9.06,4.37,12.08,3.23,2.63,8.76,3.12,11.68-.62Z"/>
      <path class="cls-4" d="M262.38,271.3c-2.93,3.73-8.45,3.25-11.68.62-3.71-3.02-4.78-7.47-4.37-12.08.32-3.56,2.15-6.81,5.26-8.01,3.36-1.3,7.35-.76,9.92,2.17,4.04,4.6,4.9,12.18.87,17.31Z"/>
    </g>
    <polygon class="cls-3" points="366.41 261.53 360.25 261.63 363.11 254.72 366.41 261.53"/>
  </g>
  <g>
    <path class="cls-2" d="M263.84,213.64c3.86-.28,7.49-1.55,11.03-3.02.04.46,0,.87.08,1.19v.55s-.03.9-.03.9c-.01.41.05.82.42,1.05-.04,2.54,1.98,4.52,4.9,4.83,10.14,1.08,20.43,1.09,30.6.12,7.75-.74,13.74-5.23,16.83-12.09,1.49-3.31,2.88-6.41,3.28-10.09.08-.78.67-1.18,1.18-1.26.33-.06,1.28,0,1.22.75l-2.18,27.28-68.19-.1-13,.16c-.43-.5-.38-2.03.12-2.4l7.01-.55c4.08-.32,6.61-3.35,6.73-7.33Z"/>
    <path class="cls-7" d="M275.34,214.32c-.37-.23-.43-.64-.42-1.05.35.24.43.64.42,1.05Z"/>
    <path class="cls-7" d="M274.94,212.36v-.55c.1.22.11.33,0,.55Z"/>
    <path class="cls-3" d="M351.52,185.59c-.21.77-.97.93-1.84,1.06-5.66.82-10.97.75-16.65.9l5.46-1.51c4.12-1.7,8.19-3.06,11.59-5.74l1.43,5.29Z"/>
    <path class="cls-3" d="M348.7,174.01c-2.32.26-3.73,4.06-7.09,5.21l3.2-5.4c-2.21,1.86-4.04,3.82-4.98,6.14l.38.38c.34-.33.44-.75,1.29-1.05-.17,1.06-.66,1.25-1.49,1.71.37-.48-.09-.77-.36-.75l-4.03,3.49,2.6-3.76c3.23-4.67,6.29-9.25,10.31-13-.09,2.2.52,4.89.15,7.03Z"/>
    <path class="cls-3" d="M346.81,201.79c-.56-.22,1.03.18.05-.81l.59.82c2.13,2.95,2.11,7.45,4.75,10.34l.41-1.83,4.7,5.99c-7.01-.76-9.66-7.69-10.28-14.19-.06-.05-.14-.13-.22-.32ZM352.64,212.32l-.24.24.24.24.24-.24-.24-.24Z"/>
    <path class="cls-5" d="M349.74,178.72c-3.29,2.76-7.19,5.07-11.86,5.79,3.99-2.58,8.17-4.06,11.6-7.06l.27,1.28Z"/>
    <path class="cls-5" d="M349.43,176.5l-6.65,3.82c1.7-2.98,4.39-3.77,5.92-6.31.28.7.68,1.62.72,2.49Z"/>
    <polygon class="cls-5" points="336.92 184.82 337.25 184.82 337.56 184.83 337.25 184.84 336.92 184.84 336.61 184.83 336.92 184.82"/>
    <path class="cls-4" d="M264.25,174.12l.02,16.67c-9.39,3.63-19.71,9.86-27.16,17.35.03-3.02,2.51-4.02,4.51-5.68,9.37-7.75,13.22-20.37,10.24-32.17l12.4,3.83Z"/>
    <path class="cls-3" d="M206.24,174.7l.67-.11c.08,0,.17,0,.21.05l.53-.47c-.21-.59-1.1-1.09-.65-2.6l3.73,3.2c.59-.56.18-1.06.07-1.21.11-.13.26-.33.39-.41,1.68-.47-1.17-1.31-.29-3.2l7.02,6.54,4.32,2.67c-6.49,2.2-12.55,1.53-16-4.45ZM212.6,173.14c-.28,0-.61.26-.31.69l.31-.69ZM213,173.45l-.59.51c.38.27.3.85.02.94l-1.32.41c1.86,1.53,4.09,3.47,6.68,3.39-1.63-1.23-2.42-1.75-2.9-3.26-.17.96-.69,1.1-.97,1-.18-.07-.71-.5-.62-.68s.98-.43,1.22-.55c.25-.8-.82-1.57-1.52-1.77ZM207.76,174.36l-.22.65c-.26-.08.76,0,.22-.65Z"/>
    <path class="cls-3" d="M200.16,153.97c.15-.23.46-.72.49-1l-.49,1Z"/>
    <path class="cls-3" d="M208.35,155.46l-.46-.55,2.21-1.83c.24-.52-.42-.79-.66-1.07l2.57-2.03c1.63-1.29,3.78-2,4.56-4.14-2.12,1.37-3.48,3.01-5.78,3.9.67-1.5,1.63-2.34,1.99-4.1-1.64.33-2.06,1.68-2.66,2.89-1.51,3.03-3.79,5.26-7.03,6.31.66-1.43,2.53-1.92,2.26-4.01-2.1,2.42-4.73,6-4.94,4.78l-.1-.61c1.08-.58,2.19-2.13,2.2-3.36.99-.31,1.38-1.3,1.5-2.29.22-.37.43-.71.46-.57,1.21.05.99-.94-.04-.63,1.6-3.35,6.92-4.79,11.39-5.39l5.37-.72c-2.63,6.08-7.17,10.49-12.83,13.42ZM206.22,149.32c-.61.12-.83.74-.73,1.06.06.2.39.41.71.26.44-.21.34-1.38.02-1.32Z"/>
    <path class="cls-3" d="M204.42,148.15c.1.34.09.6.04.63-.15.11-.42.32-.46.57-.93.2-1.34.9-1.5,2.29-.76.24-1.41.84-1.86,1.33.23-1.97,2.07-4.07,3.78-4.82Z"/>
    <path class="cls-3" d="M200.31,155c-.1.07-.6.42-.8.36-.39-.12-.27-.8-.04-.91.19-.09.56-.27.7-.48-.12.5-.08.87.15,1.03Z"/>
    <path class="cls-5" d="M210.11,153.08c-1.64-.17-2.56,1.83-4.52,1.73l3.86-2.8c.24.27.9.54.66,1.07Z"/>
    <path class="cls-5" d="M211.19,173.14c-.13.08-.28.28-.39.41-1.03-.63-1.79-1.6-2.53-2.54-.07-.09-.16-.17-.22-.2-.5-.35.09-.93.43-.42.03.05.1.14.19.21.9.77,1.94,1.47,2.52,2.53Z"/>
    <path class="cls-5" d="M208.35,155.46c-1.26.66-2.42,1.91-4.67,1.74l4.22-2.3.46.55Z"/>
    <path class="cls-3" d="M209.07,169.27c-.56-.34-1.28-.58-1.72-1.35,1.08-.19,1.63.52,1.96,1.13.07.13.19.22.3.22.91-.15.59.86-.05.5l-.49-.5Z"/>
    <path class="cls-3" d="M206.07,170.58c.34-.46.56,0,.69.15.29.35.15.88-.11.96-.51.15-1.07-.45-.59-1.11Z"/>
    <path class="cls-5" d="M206.91,174.59l-.67.11-.27-.87c-.03-.1-.15-.16-.23-.24l-.25-.23c-.09-.08-.2-.15-.23-.25l-.24-.72-.24-.24-.24-.72-.25-.24c-.38-.36-.42-1.1.06-1.48.32.58.21.95.18,1.24.11.05.21.13.24.24l.25.71.23.25.25.71c.04.1.13.18.23.24.1.05.16.15.24.24l.23.24c.28.29.53.63.7,1Z"/>
    <polygon class="cls-4" points="197.2 160.43 197.52 160.43 197.83 160.44 197.52 160.45 197.2 160.45 196.89 160.44 197.2 160.43"/>
    <rect class="cls-7" x="352.47" y="212.39" width=".34" height=".34" transform="translate(-46.99 311.73) rotate(-45.02)"/>
    <g>
      <path class="cls-7" d="M256.54,205.52c.16-.49.21-.83.12-1.41l5.35.1c.39,0,.85.48.9.93l-6.37.38Z"/>
      <path class="cls-7" d="M202.51,151.65c0,1.23-1.13,2.78-2.2,3.36-.22-.16-.26-.53-.15-1.03l.49-1c.45-.49,1.09-1.09,1.86-1.33Z"/>
      <path class="cls-7" d="M202.51,151.65c.17-1.39.58-2.08,1.5-2.29-.12.99-.52,1.98-1.5,2.29Z"/>
      <path class="cls-7" d="M204.01,149.36c.03-.25.31-.46.46-.57-.03-.14-.24.2-.46.57Z"/>
      <path class="cls-7" d="M204.47,148.79s.06-.3-.04-.63c1.04-.31,1.26.69.04.63Z"/>
      <path class="cls-7" d="M264.35,171.74l-.11,2.38-12.4-3.83c2.98,11.81-.87,24.43-10.24,32.17-2,1.65-4.48,2.66-4.51,5.68,7.45-7.49,17.77-13.72,27.16-17.35l.05,1.94c-8.31,3.53-16.28,7.96-23.11,14.22,2.25-.54,3.86-1.89,5.74-2.96,5.41-3.09,11.35-4.11,17.32-3.14,3.63.59,6.97,2.25,10.51,3.03,2.91.64,5.81,1.05,8.88.51l.11,1.19-8.88,5.04c-3.54,1.47-7.18,2.74-11.03,3.02-2.9.21-6.23.31-9.07-.88l-10.49-4.38c-5.49-2.3-14.33,10.53-18.14,16.45s-4.78,10.78-5.61,11.39c-.22.16-.99-.15-.94-.61l.55-5.94c.19-2.03,1.83-3.22,2.75-4.73,3.06-5.01,6.58-9.11,10.58-13.4,1.23-1.32,1.98-4.12,2.19-5.85-.06-1.59-1.23-3.07-1.82-4.43-2.94-6.83-2.2-14.18,2.12-20.23,2.95-4.12,5.78-8.01,8.16-12.87l-21-4.05-15.39-1.41c-2.59-.24-5.01-.33-7.67.15,2.02,1.64,4.15,1.96,6.29,2.8,4,1.57,7.34,4.2,10.18,7.44,4.6,5.24,8.43,4.81,8.4,5.99-.01.55-.35.77-.94.98-6.14,2.27-12.03,2.96-16.68-1.64-2.78-2.75-4.48-6.46-5.31-10.29-.49-2.24-1.99-3.21-3.88-3.96-3.51-1.39-6.51-.85-9.88-.33-3.58.55-7.17,1.54-10.57,2.67-12.16,4.02-22.98,9.82-31.27,20.24-1.71,2.16-2.22,4.97-4.64,6.91-.88-2.85.57-5.43,1.98-7.82,5.65-9.6,22.88-18.98,34.04-21.77l10.58-2.64c2.52-.63,6.36-.31,7.96-3.24,1.92-3.51,3.05-7.41,5.76-10.55,5.62-6.49,12.6-6.13,20.85-7.29-.43,3.42-2.07,5.94-4.01,8.44-5.17,6.64-12.84,9.61-20.95,11.26,9.64.71,18.46.44,27.55,2.23l19.51,3.83,1.64-6c.15-.54.41-.76.72-.82.39-.08.85.1,1,.59l2.27,7.43,11.56,4.19c.83.3,1.56.38,2.15.22ZM204.42,148.15c-1.71.75-3.55,2.85-3.78,4.82-.03.28-.33.77-.49,1-.14.21-.51.39-.7.48-.23.11-.35.79.04.91.2.06.7-.29.8-.36l.1.61c.2,1.23,2.84-2.36,4.94-4.78.27,2.09-1.6,2.58-2.26,4.01,3.24-1.05,5.52-3.28,7.03-6.31.61-1.22,1.02-2.56,2.66-2.89-.37,1.77-1.32,2.6-1.99,4.1,2.31-.89,3.66-2.52,5.78-3.9-.78,2.14-2.93,2.85-4.56,4.14l-2.57,2.03-3.86,2.8c1.97.09,2.88-1.9,4.52-1.73l-2.21,1.83-4.22,2.3c2.25.16,3.41-1.09,4.67-1.74,5.65-2.94,10.2-7.35,12.83-13.42l-5.37.72c-4.47.6-9.79,2.05-11.39,5.39ZM197.2,160.43h-.31s.31.02.31.02h.64s-.31-.02-.31-.02h-.32ZM235.72,200.84c.21-3.55-.58-6.91.66-10.16l.55,10.39c1.28-4.42.49-8.52,2.68-12.47.14,3.59-1.61,6.37-.97,10.15l4.15-9.87c.74-1.76-1.18-8.19,1.13-10.75l.07,8.05c1.92-5.18,2.15-10.13,3.25-15.1,1.17,2.65-.49,5.25-.17,7.65.47.89,1.58,1.46.88,2.88l-3.34,6.72-.41.82c-.14.27-.19.88.7.9.94-.84,1.3-2.48,2.94-2.86-1.77,4.68-6.75,6.9-7.55,11.9l5.3-6c-.28,2.85-3.25,3.71-3.59,6.8,9.02-8.22,11.83-21.7,7.13-33.03-.72-1.74-.67-3.43-1.78-4.8-2.76,15.17-19.06,23.32-11.88,39.25l.24-.47ZM209.31,169.04c-.32-.62-.87-1.33-1.96-1.13.45.77,1.16,1.01,1.72,1.35l.24-.22ZM209.61,169.26l-.05.5c.64.36.95-.65.05-.5ZM204.53,170.96c.03-.29.14-.66-.18-1.24-.48.38-.44,1.12-.06,1.48l.24-.24ZM206.07,170.58c-.49.66.07,1.26.59,1.11.26-.08.39-.61.11-.96-.13-.16-.35-.62-.69-.15ZM208.48,170.4c-.34-.52-.93.06-.43.42l.43-.42ZM211.19,173.14c-.58-1.06-1.62-1.76-2.52-2.53l-.4.4c.74.94,1.5,1.91,2.53,2.54.11.15.52.65-.07,1.21l-3.73-3.2c-.44,1.51.44,2.02.65,2.6.03.08.08.16.11.2.55.66-.48.57-.22.65l-.42-.38s-.13-.05-.21-.05c-.17-.37-.42-.7-.7-1l-.24.24.27.87c3.44,5.98,9.5,6.64,16,4.45l-4.32-2.67-7.02-6.54c-.88,1.89,1.96,2.74.29,3.2ZM204.77,171.2l-.24.24.24.72.24-.24-.25-.71ZM205.25,172.16l-.23.23.24.72.24-.24-.25-.71ZM205.73,173.11l-.24.24.25.23.24-.24c-.08-.08-.15-.18-.24-.24ZM247.62,179.9c-1.06-.72-1.54,1.52-1.77,4.27.64-1.27,1.38-2.35,1.77-4.27ZM243.61,190.56h-.31s.31.02.31.02h.64s-.31-.02-.31-.02h-.32ZM241.41,200.48c-.79-1.62-.62-.17-1.93,1.76.82-.37,1.2-.86,1.93-1.76ZM235.86,201.34l-.07.5c-.49.37.01.99.17.88.37-.52.12-1.11-.1-1.38ZM256.65,204.11c-1.1.07-2.26.31-3.36.85,1.19.32,2.11.23,3.25.55,3.57.83,7.23.65,11.19.56,1.04-.03,1.96-.19,2.41,1.01h-10.11c-2.78,0-5.28-1.53-8.3-.82l11.6,3.18c-4.88,1.63-10.65-3.92-15.95-2.28l7.98,3.05-2.19.35c8.65,3.57,18.62.73,26.75-4.42-4.46-.46-8.02-1.88-11.92-3.09-4.74-1.47-9.68-1.45-14.23-.07l6.42-.1-3.51,1.22ZM253.39,203.53c-1-.86-3.04.4-5.29,1.5,1.83-.2,3.53-.94,5.29-1.5ZM248.25,208.72c.73.77.93.08.61-.23l-.61.23ZM249.28,208.99l-.21.24c.61.49,1.74.83,2.59.7l.21-.25c-.64-.47-1.74-.79-2.6-.69ZM252.09,210.42l.61-.23c-.73-.77-.93-.08-.61.23Z"/>
      <path class="cls-3" d="M256.65,204.11c.09.58.04.92-.12,1.41-1.14-.32-2.06-.23-3.25-.55,1.1-.55,2.26-.78,3.36-.85Z"/>
      <path class="cls-3" d="M256.54,205.52l6.37-.38c-.04-.45-.51-.93-.9-.93l-5.35-.1,3.51-1.22-6.42.1c4.55-1.37,9.49-1.4,14.23.07,3.9,1.21,7.45,2.62,11.92,3.09-8.13,5.14-18.1,7.99-26.75,4.42l2.19-.35-7.98-3.05c5.3-1.64,11.07,3.92,15.95,2.28l-11.6-3.18c3.02-.71,5.52.82,8.3.82h10.11c-.45-1.2-1.37-1.04-2.41-1.01-3.96.1-7.62.27-11.19-.56Z"/>
      <path class="cls-5" d="M247.62,179.9c-.38,1.92-1.13,2.99-1.77,4.27.22-2.75.71-4.98,1.77-4.27Z"/>
      <path class="cls-3" d="M253.39,203.53c-1.76.56-3.46,1.3-5.29,1.5,2.25-1.1,4.29-2.36,5.29-1.5Z"/>
      <path class="cls-5" d="M248.25,208.72c.73.77.93.08.61-.23l.43.5c.86-.09,1.96.23,2.6.69.05.04.22.29.82.51-.73-.77-.93-.08-.61.23l-.43-.49c-.85.13-1.98-.21-2.59-.7-.06-.05-.22-.28-.83-.51Z"/>
      <path class="cls-3" d="M241.41,200.48c-.73.9-1.11,1.4-1.93,1.76,1.31-1.93,1.14-3.38,1.93-1.76Z"/>
      <path class="cls-3" d="M235.48,201.31c-7.18-15.93,9.12-24.08,11.88-39.25,1.12,1.36,1.06,3.06,1.78,4.8,4.7,11.33,1.89,24.82-7.13,33.03.34-3.09,3.31-3.95,3.59-6.8l-5.3,6c.8-5,5.78-7.22,7.55-11.9-1.64.38-2,2.02-2.94,2.86-.9-.02-.84-.63-.7-.9l.41-.82,3.34-6.72c.7-1.42-.41-2-.88-2.88-.32-2.41,1.33-5,.17-7.65-1.1,4.97-1.33,9.92-3.25,15.1l-.07-8.05c-2.31,2.55-.4,8.99-1.13,10.75l-4.15,9.87c-.64-3.78,1.11-6.56.97-10.15-2.2,3.95-1.4,8.05-2.68,12.47l-.55-10.39c-1.25,3.25-.45,6.61-.66,10.16-.06.28.02.36.13.5.21.27.47.86.1,1.38-.16.11-.65-.51-.17-.88-.16-.37-.31-.52-.3-.53ZM247.84,186.5l-.24.24.24.24.24-.24-.24-.24Z"/>
      <polygon class="cls-3" points="243.61 190.56 243.94 190.56 244.25 190.57 243.94 190.57 243.61 190.57 243.3 190.57 243.61 190.56"/>
      <path class="cls-3" d="M264.31,192.73l-.05,8.12c-5.96-.97-11.9.06-17.32,3.14-1.87,1.07-3.48,2.42-5.74,2.96,6.83-6.26,14.8-10.69,23.11-14.22Z"/>
      <rect class="cls-7" x="247.67" y="186.57" width=".34" height=".34" transform="translate(-59.44 230.04) rotate(-45.02)"/>
    </g>
    <path class="cls-7" d="M206.22,149.32c.32-.06.42,1.11-.02,1.32-.32.15-.64-.06-.71-.26-.1-.32.12-.94.73-1.06Z"/>
    <path class="cls-7" d="M212.29,173.84c-.3-.44.03-.7.31-.69.18.21.33.28.4.3.7.2,1.76.96,1.52,1.77-.24.11-1.14.37-1.22.55s.44.61.62.68c.28.1.81-.04.97-1,.48,1.51,1.27,2.03,2.9,3.26-2.59.08-4.82-1.86-6.68-3.39l1.32-.41c.29-.09.36-.67-.02-.94-.05-.05-.09-.09-.12-.13Z"/>
    <g>
      <path class="cls-1" d="M327.26,134.63c-.59.88-2.23,1.14-3.09.8,1.1-5.45,3.65-9.49,2.14-16.05-1.15-5,1.16-12.26,5.62-11.37,5.81,6.47.09,19.54-4.67,26.61ZM332.55,119.58c1.2-3.37.63-6.92-1.14-9.73.07,3.1.75,5.76-.46,8.43-.14-3.07.34-5.58-.46-8.38-3.65,1.39-3.15,7.14-2.16,11.64l-.75,7.66c1.07-1.34,1.15-2.83,1.89-4.67l.17,3.24,2.92-8.19Z"/>
      <path class="cls-1" d="M319.85,136.48c-.1.55.61,1.93-.59,2.14l-2.58-1.03c-.43-1.36-1.76-1.95-2.82-3-10.39-10.44-7.82-20.78-3.82-20.78s3.85,7.42,4.48,11.29c.7,4.31,3.11,7.89,5.32,11.38ZM312.88,124.05c.6-2.93-1.19-9.36-3.23-8.73-1.83.57-2.31,6.98,1.25,12.7,1.18,1.9,2.1,3.88,4.44,5.01l-3.33-9.28c-.03-.07-.09-.26-.28-.53-.59-.62.5-1.35.62-.21,0,0,.3.31.52,1.05Z"/>
      <path class="cls-1" d="M329.61,139.51c-.48-.16-1.42-.04-1.82-.39-.87-.78.04-1.47.38-2.01,2.25-1.09,3.5-3.32,7.21-4.87,4.71-1.96,7.81-7.94,11.82-6.01,2.15,1.04,1.56,3.97.19,5.55-5.07,5.86-12.11,4.09-17.78,7.73ZM340.13,134.45c4.3-1.13,8.25-4.99,6.45-6.56-.5-.44-1.66-.59-2.24-.17l-4.99,3.65-5.8,3.49c2.95.03,4.74-1.25,7.68-2.14l-1.1,1.73Z"/>
      <path class="cls-5" d="M299.38,184.76l-.12.95-7.12-1.59c-.76-.17-1.45-.51-1.34-1.37,3.08.1,5.78,1.46,8.58,2.02Z"/>
      <path class="cls-3" d="M300.9,188.53l-2.15-.78c.91-.75,1.86-.37,2.56.38.09-.01.18.01.26.04,5.06,1.46,8.98,5.18,11.27,10.16l2.94,8.42-8.33-1.68c-5.21-1.05-9.89-4.88-12.03-9.86-.98-2.29-.97-4.8-1.35-7.3,2.21,2.77,1.94,7.02,4.31,8.5l-2.43-7.27c-.14-.04-.24-.14-.29-.2-.39-.49.05-.5.2-.83l.37.71c1.61,2.28,2.65,4.98,3.29,7.99.54.32.98-.11.79-.72l-2.05-6.4c4.8,2.27,4.55,7.18,7.2,10.52l-.91-4.2c2.65,1.8,3.48,6.07,6.83,7.97-.27-2.01-1.96-2.83-2.83-4.24l-3.24-5.27-.17-.08c-.1-.08-.21-.24-.29-.39-.05-.09-.13-.14-.19-.15-.61-.38.07-.96.42-.47.03.07.09.2.19.26l.35.22c.09.05.14.15.17.25,1.19.54,2.23,1.21,2.96,2.56l-.04-1.93-7.69-4.4,2.88.18c-1-1.19-1.96-1.33-2.82-1.8-.07-.04-.14-.1-.19-.18ZM305.74,200.37l-.24.24.24.24.24-.24-.24-.24Z"/>
      <path class="cls-3" d="M291.06,156.38c-1.08,1.3-.74,3.06-.39,4.76l1.88,9.16-2.63-6.98c-.82.81.11,1.99-.52,3.19-2.14-4.82-.84-10.08,2.61-14.36,3.95,6.05,5.39,13.51,3.18,20.61-.43-3.76.29-7.19-1.76-10.59-.42,2.82,1.25,4.9.42,7.66l-1.09-3.99c-.84-3.05-1.29-5.72-1.68-9.47Z"/>
      <path class="cls-3" d="M309.77,155.93c.07-.42-.17-.53-.57-.44l-.78-1.55c.56-.06.95.18,1.44.72.3.33.55.85-.1,1.27Z"/>
      <path class="cls-3" d="M308.42,153.94l-.71.08c-.17.02-.33.11-.44.23.4.7,1.14,1.28,1.93,1.24-.06.37.21.55.57.44.01,1.11.96,1.69,1.45,2.53.07.12.25.27.28.28.73.75-.29.57-.2.76-.23-.33-.32-.53-.33-.57l-4.24-2.36c-5.32-2.96-5.79-10.34-3.81-16.19,3.27,6.87,11.5,9.98,10.07,16.63-.45-1.4-.76-2.74-1.68-4.06l-3.2-4.55c-.48,1.44.49,2.16.92,2.84l.13.21.25.35.19.2.41.69.08.28c.33.34.68.74.62,1.42-.59-.3-.64-.87-.93-1.08l-.25-.18-.56-.63-.04-.09c-.08-.17-.2-.34-.36-.42l-.11-.06-2.14-1.94-.44.5c.74,1.23,1.92,2.08,2.54,3.47ZM306.1,149.85c-.68-1.45-.6-3.09-1.86-4.7-.5,2.13.62,3.63,1.47,5.04l.39-.34ZM306.49,153.21c-.05-.23-.14-.34-.35-.49-.15-.11-.58-.07-.6.11-.04.35.42.81.69.71l.27-.34ZM306.78,153.34l-.37.42.63.48.42-.53-.69-.38Z"/>
      <polygon class="cls-4" points="274.83 186.99 274.86 177.82 288.55 182.29 274.83 186.99"/>
      <path class="cls-5" d="M326.99,136.44c-1.43,2.68-2.29,4.3-4.02,6.22-.45-2.9,1.47-5.54,4.02-6.22Z"/>
      <path class="cls-5" d="M324.67,165.17c-2.74,1.24-5.59,1.05-8.6.3,3.07-.97,5.62-.47,8.6-.3Z"/>
      <path class="cls-5" d="M321.75,140.36c-.7-2.51-.55-4.74-.25-7.06,1.04,2.41,1.75,4.6.25,7.06Z"/>
      <path class="cls-5" d="M320.76,142.99c-1.68-.61-3.07-2.01-3.8-4.17,1.5.79,3.27,1.72,3.8,4.17Z"/>
      <path class="cls-5" d="M329.45,141.19c-1.79,1.66-3.63,2.12-5.88,2.67,1.45-1.83,3.41-2.82,5.88-2.67Z"/>
      <path class="cls-5" d="M322.72,163.55c.07.15.35.56.54.54-1.81.65-3.92.48-5.83.25,1.83-1.25,3.59-.73,5.29-.79Z"/>
      <path class="cls-3" d="M323.26,164.09c-.19.02-.47-.39-.54-.54,1.02-.04,2.07-.16,2.98-.86-1.11-.16-2.01.29-3.05-.4,2.15-.33,4.44-.57,6.3-2.51l-9.68,2.34,6-3.24c-3.23.39-5.57,1.94-8.38,3.29,3.08-3.85,7.71-5.33,12.54-5.85l7.13-.77c-2.98,4.44-6.52,8.05-11.42,9.38-.55-.26-1.36-.9-1.88-.84Z"/>
      <path class="cls-6" d="M332.55,119.58l-2.92,8.19-.17-3.24c-.74,1.84-.82,3.33-1.89,4.67l.75-7.66c-.99-4.5-1.49-10.25,2.16-11.64.8,2.8.32,5.32.46,8.38,1.21-2.67.53-5.33.46-8.43,1.78,2.81,2.34,6.36,1.14,9.73Z"/>
      <path class="cls-6" d="M312.01,123.75l3.33,9.28c-2.34-1.13-3.26-3.11-4.44-5.01-3.57-5.72-3.08-12.13-1.25-12.7,2.05-.63,3.83,5.8,3.23,8.73l-.87-.3ZM312.35,123c-.12-1.13-1.22-.4-.62.21l.62-.21Z"/>
      <path class="cls-6" d="M340.13,134.45l1.1-1.73c-2.93.89-4.72,2.17-7.68,2.14l5.8-3.49,4.99-3.65c.58-.42,1.74-.26,2.24.17,1.8,1.57-2.15,5.43-6.45,6.56ZM342.67,132.29c1.14-.62-.14-1.34-.66-.42-1.43.8.15,1.61.66.42Z"/>
      <rect class="cls-7" x="305.57" y="200.44" width=".34" height=".34" transform="translate(-52.28 275.06) rotate(-45.02)"/>
      <path class="cls-7" d="M324.17,135.43c.86.33,2.5.08,3.09-.8.99.36,1.41,1.67.91,2.47-.34.55-1.25,1.23-.38,2.01.4.36,1.34.23,1.82.39.61.2,1.35.85,1.88,1.51-2.35,2.85-5.55,3.71-9.07,4.36-.86,5.17-3.34,9.1-5.23,14.1,4.51-2.9,8.7-4.66,13.69-4.46,3.12.13,5.52-1.32,8.72-2.41-1.78,4.9-5.35,8.85-9.29,11.69-7.86,5.67-16.17.98-18.6,3.53-5.2,5.45-10.79,9.99-17.51,13.77l16.99,3.66c4.77,1.03,9.43.24,13.87-2.19-.2,2.12-2.16,2.14-3.76,3.56,8.49,1.98,11.2-.81,15.59-7.03l7.52-10.64c1.12-1.58,2.58-2.9,4.2-3.5l-.06,1.52c-4.01,3.75-7.08,8.34-10.31,13l-2.6,3.76,4.03-3.49c.13.08.36-.12.17-.28.94-2.33,2.77-4.28,4.98-6.14l-3.2,5.4c3.35-1.14,4.76-4.95,7.09-5.21-1.53,2.54-4.22,3.33-5.92,6.31l6.65-3.82.05.94c-3.43,3-7.61,4.48-11.6,7.06,4.68-.72,8.57-3.03,11.86-5.79l.34,1.59c-3.4,2.68-7.47,4.03-11.59,5.74l-5.46,1.51c5.68-.15,10.99-.08,16.65-.9.87-.13,1.64-.29,1.84-1.06.23.2.83.68,1.36.57l10.54-2.15c4.62-.94,9.09-2.69,13.43-5.14.48-1.89.29-3.77-.16-5.6-2.31-9.46,1.75-17.5,9.97-23.54-.23,3.18-.27,5.53.46,8.23,2,7.38-1.65,13.86-6.9,19.65,6.82-2.66,12.17-6.8,17.57-10.97-1.29-3.53-.76-6.51.22-9.71.26-.86.56-1.47,1.54-1.45-.05.7.23,1.62-.05,2.29-.14-.25-.51-.24-.58.02-.52,2.34-.84,4.47-.06,6.85,1.28-1.91.98-3.89.57-5.77.83,0,.61,1.41,1.97,1.41.67,0,.91-.34,1.34-.8.88-.93,2.09-1.76,3.24-2.11.2,1.29.45,2.5.44,3.73v.54c-.66.43-.71,1.21-.98,1.83-.32.75-1.29,1.18-1.89,1.74.52.41.92.25,1.17.21l2.66,1.46,1.02.56.5.8c.12.4.37,1.53-.12,1.93-4.74-.11-9.68-2.3-10.12-2.22-.57.1-.9.79-1.41,1.22-5.14,4.37-10.93,7.14-16.88,10.44,2.69.23,4.7-1.06,7.07-1.51,6.66-1.25,13.2.32,18.15,5,1.6,1.52,3.29,2.74,5.68,3.82-1.53,1.67-3.26.82-4.83,1.31-10.36,3.26-19.24,3.09-25.92-5.97-1.19-1.62-4.52-.74-6.07-.17l-10.31,3.78-11.36,2.34-15.47,1.32c3.75,1.97,6.74,4.63,9.05,8.27l7.97,12.56c1.86,2.93,4.37,4.81,7.19,7.21-6.05,1.55-11.39-1.72-13.74-6.85l-2.09-7.41c-2.16-7.64-8.27-13.43-16.3-13.92-8.06-.5-15.66-1.77-23.55-3.34l-6.46-1.28c-2.8-.56-5.49-1.91-8.58-2.02-.11.86.58,1.2,1.34,1.37l7.12,1.59c7.96,1.78,14.37,7.3,16.19,15.64.61,2.77,1.61,4.96,3.56,7.68l-12.11-2.43c-7.56-1.51-12.76-7.1-13.83-14.78-.27-1.93-.54-4.4-1.68-5.96-1.4-1.91-3.86-1.24-5.68-.58l-10.87,4.01v-2.3s13.7-4.71,13.7-4.71l-13.68-4.47-.03-2.28,15.55,4.79c4.64-3.37-1.44-8.9-3.03-15.32-1.29-5.2.62-10.7,4.7-14.38,6.61,8.48,7.26,19.2,1.67,28.45,6.71-2.88,11.61-7.49,16.26-12.5,1.06-1.09,2.34-2.75,1.72-4.41-.67-1.79-2.69-3-4.42-3.74-8.08-3.45-8.07-13.29-4.27-21.28,1.92,4.48,4.31,7.58,7.41,10.49,3.69,3.13,4.49,7.22,4.11,12.51,3.33-4.72,4.93-9.88,6.67-15.06-4.59-1.86-7.3-7.37-4.49-7.5l2.58,1.03c1.19-.2.48-1.58.59-2.14l.8-4.2c.09-.46.39-.86.57-1.03.17-.15.87-.04.94.19l.94,2.98c.25.8.59.83,1.06,1.01ZM321.75,140.36c1.5-2.45.79-4.65-.25-7.06-.3,2.32-.45,4.54.25,7.06ZM326.99,136.44c-2.55.68-4.47,3.32-4.02,6.22,1.72-1.92,2.59-3.54,4.02-6.22ZM320.76,142.99c-.53-2.45-2.31-3.38-3.8-4.17.74,2.16,2.12,3.56,3.8,4.17ZM309.77,155.93c.65-.42.4-.94.1-1.27-.5-.54-.88-.78-1.44-.72-.62-1.39-1.8-2.24-2.54-3.47l-.17-.28c-.84-1.41-1.96-2.91-1.47-5.04,1.26,1.61,1.18,3.25,1.86,4.7l.21.12,2.14,1.94.58-.68c-.42-.68-1.4-1.4-.92-2.84l3.2,4.55c.93,1.32,1.23,2.66,1.68,4.06,1.42-6.65-6.81-9.76-10.07-16.63-1.98,5.85-1.51,13.23,3.81,16.19l4.24,2.36.24-.47c-.49-.84-1.44-1.42-1.45-2.53ZM329.45,141.19c-2.47-.16-4.43.84-5.88,2.67,2.25-.55,4.09-1.01,5.88-2.67ZM309.16,151.44l-.6.53c.16.08.28.25.36.42l.49-.6-.25-.35ZM291.06,156.38c.39,3.75.84,6.42,1.68,9.47l1.09,3.99c.83-2.77-.84-4.85-.42-7.66,2.05,3.4,1.34,6.83,1.76,10.59,2.22-7.1.78-14.56-3.18-20.61-3.45,4.28-4.74,9.54-2.61,14.36.64-1.2-.3-2.37.52-3.19l2.63,6.98-1.88-9.16c-.35-1.7-.69-3.46.39-4.76ZM309.61,151.99l-.64.5.56.63.48-.43-.41-.69ZM382.86,158.75c-.01,4.01-.99,7.05-.24,10.82l1.4-5.46-.35,6.75c1.97-2.93,2.99-6.52,2.54-10.16l-.99-8.1c-6.98,6.23-9.18,13.57-6.58,21.96l1.19-9.12c.05,0,.25.09.39.26l.02,8.08c1.97-5.21.33-11.49,2.62-15.03ZM310.09,152.96l-.31.33c.29.21.34.78.93,1.08.06-.68-.29-1.08-.62-1.42ZM322.72,163.55c-1.7.06-3.46-.46-5.29.79,1.91.23,4.02.41,5.83-.25.52-.07,1.33.58,1.88.84,4.9-1.33,8.44-4.93,11.42-9.38l-7.13.77c-4.84.52-9.46,2-12.54,5.85,2.81-1.35,5.15-2.9,8.38-3.29l-6,3.24,9.68-2.34c-1.86,1.94-4.15,2.18-6.3,2.51,1.04.68,1.94.24,3.05.4-.91.7-1.96.82-2.98.86ZM311.51,158.74l-.2.76c-.1-.18.92,0,.2-.76ZM405.89,159.53c-1.4-.61-4.95,3.07-5.47,5.57,2.69-1.16,3.8-3.16,5.47-5.57ZM324.67,165.17c-2.97-.17-5.53-.67-8.6.3,3,.75,5.86.95,8.6-.3ZM407.02,168.34c-1.75-1.96-4.12-2.09-6.37-1.21,2.07.49,3.95,1.28,6.37,1.21ZM382.59,170.33c.11-.64-.68-.64-.57,0-.29.97.86.97.57,0ZM386.32,185.91c4.32,2.47,9.95,3.4,15.06,2.22l6.35-1.47-3.57-3.16c-5.51-4.88-13.65-5.96-20.28-2.92,3.17.15,5.93-.99,8.82-.01l-7.64,1.08c1.84.88,3.45,1.18,5.26,1.31l9.37.7c.93.41.32,1.35-.35.59-4.6.27-8.9.11-13.06-.94l-.4.51c2.18,1.53,4.65,1.68,7.4,2.52-2.45,1-4.58-.48-6.64-.8l-.32.36ZM340.03,181c.82-.46,1.32-.65,1.49-1.71-.86.3-.95.73-1.29,1.05l-.19.66ZM384.48,182.96c.26.38.64,0,.26-.26l-.26.26ZM385.18,183.15l-.24.24.7.27.42-.35-.88-.16ZM336.92,184.82h-.31s.31.02.31.02h.64s-.31-.02-.31-.02h-.32ZM386.4,185.27c-.47-.33-.39,0-.86.19l.86-.19ZM301.3,188.13c-.7-.75-1.65-1.13-2.56-.38l2.15.78.4-.4ZM295.95,189.14l2.43,7.27c-2.37-1.49-2.1-5.73-4.31-8.5.38,2.5.37,5,1.35,7.3,2.14,4.98,6.82,8.81,12.03,9.86l8.33,1.68-2.94-8.42c-2.29-4.98-6.22-8.7-11.27-10.16l-.48.55c.86.47,1.82.61,2.82,1.8l-2.88-.18,7.69,4.4.04,1.93c-.73-1.35-1.77-2.02-2.96-2.56l-.48.37,3.24,5.27c.87,1.42,2.56,2.23,2.83,4.24-3.35-1.9-4.18-6.17-6.83-7.97l.91,4.2c-2.66-3.34-2.41-8.25-7.2-10.52l2.05,6.4c.2.61-.24,1.04-.79.72-.63-3.01-1.67-5.71-3.29-7.99l-.28.32ZM295.86,188.11c-.15.33-.59.34-.2.83l.2-.83ZM305.09,193.38c-.35-.49-1.03.09-.42.47l.42-.47ZM305.28,193.63l-.43.36c.08.15.19.31.29.39l.49-.54-.35-.22ZM346.81,201.79c-.56-.22,1.03.18.05-.81l-.05.81ZM347.45,201.8l-.43.31c.63,6.51,3.27,13.44,10.28,14.19l-4.7-5.99-.41,1.83c-2.64-2.88-2.62-7.38-4.75-10.34Z"/>
      <path class="cls-7" d="M308.42,153.94l.78,1.55c-.79.04-1.53-.54-1.93-1.24-.08.04-.16.04-.21,0l-.63-.48c-.07-.06-.14-.13-.19-.22-.27.09-.73-.36-.69-.71.02-.18.45-.22.6-.11.21.15.31.26.35.49l.29.13.69.38c.11.06.19.17.23.3l.71-.08Z"/>
      <path class="cls-1" d="M342.67,132.29c-.5,1.19-2.09.37-.66-.42.52-.91,1.8-.19.66.42Z"/>
      <path class="cls-7" d="M309.77,155.93c-.36.11-.63-.07-.57-.44.4-.09.64.02.57.44Z"/>
    </g>
    <g>
      <path class="cls-2" d="M360.88,157.28l-.3,3.35v4.35s.04,1.41.04,1.41l.03,2.22.39,2.21c.15,4.42,1.25,8.69,2.38,13.18l-10.54,2.15c-.54.11-1.14-.37-1.36-.57l-1.43-5.29-.34-1.59-.27-1.28-.05-.94c-.04-.87-.45-1.79-.72-2.49.37-2.14-.24-4.83-.15-7.03l.06-1.52c.38-9.31,2-18.54,6.37-27.09,16.12-31.52,58.11-38.11,88.04-22.59l.48,6.88,2.14,17.95c.01.6-2.27.71-2.41.11-3.29-13.98-11.21-24.23-25.48-27.75-18.5-4.57-38.68,1.71-48.71,18.42-4.84,8.06-7.33,16.81-8.16,25.89Z"/>
      <path class="cls-2" d="M364.14,185.87c7.97,23.26,29.08,40.88,54.3,35.65,14.83-3.07,22.07-14.68,25.96-28.51,1.07-.13,1.78-.17,2.68.33l-2.92,23.79c-16.66,9.92-39.1,11.78-57.41,5.3-16.03-5.67-28.56-18.12-33.97-34.22l11.36-2.34Z"/>
      <path class="cls-1" d="M405.45,163.48c.27-.62.32-1.41.98-1.83.7-.28,1.44-.44,2.19-.49l.24-.24c1.64-1.61,4.14-2.66,6.51-5.35.2,1.64-1,2.08-1.51,3.22,2.77-.79,4.4-4.02,3.14-5.07-1.69-1.39-7.35,4.62-10.57,7.4.01-1.23-.24-2.44-.44-3.73,2.29-.7,3.43-6.31,7.8-10.9,1.93-2.03,4.93-3.92,7.79-3.21,2.31.57,1.29,5.65-3.2,8.95,2.07,6.16-6.34,10.34-12.94,11.27ZM419.92,146.6c.57.87-.43,1.46-.5,2,1.21-.32,2.52-2.4,1.81-3.72-1.19-2.22-8.82,2.83-10.27,8.63.98-.62.93-1.88,2.23-1.79l-2.46,3.77c3.62-2.51,6.12-5.59,9.18-8.89ZM408.91,161.54c1.8-.22,3.77-1.13,5.02-2.77l-4.83,2.38-.19.4Z"/>
      <path class="cls-1" d="M402.76,159.48c-.43.46-.68.8-1.34.8-1.36,0-1.15-1.41-1.97-1.41-.05-.27-.04-.86.06-1.11.27-.67,0-1.59.05-2.29.3-4.14,1.04-8.28,4.29-11.29.9-.84,2.64-2.18,3.86-1.49,1.64.93,1.15,3.42.41,4.82l-4.79,9.1c-.5.95-.89,1.85-.56,2.86ZM402.48,155l4.24-7.51c.67-1.18,1.22-2.53.26-3.97-2.55,1.66-3.85,4.02-4.99,6.63,2.37,1.29-.25,2.69.49,4.86ZM401.92,151.12v.31s0,.32,0,.32v.31s.02-.31.02-.31v-.64ZM401.45,152.55v.31s0,.32,0,.32v.31s.02-.31.02-.31v-.64Z"/>
      <path class="cls-1" d="M408.91,168.24l-.5-.8,3.43.23c2.39.16,5.33.03,7.16-1.85.42-.81-1.51-1.79-2.46-1.6l-7.31,1.46,5.2.91c-2.89,1.41-6.03-.54-7.03.3l-2.66-1.46c.15-.57.93-.83,1.67-.95l9.36-1.56c1.87-.31,4.92.71,4.98,2.34.1,2.95-6.49,4.5-11.83,2.99Z"/>
      <path class="cls-7" d="M361.04,170.82l-.39-2.21c.22.06.69.06.87-.26l2.56-4.46-.6-.65-.55.67c-.28.34-.92-.04-.71-.25.71-.69,1.19-1.19,1.42-1.05.2.11.24.46.09.63l.45.39c.9-1.95,1.77-3.88,2.13-6.24l-5.73,3.25.3-3.35c.07.22-.18.57.24,1.14,3.48-1.31,5.89-4.15,7.04-3.45-.52,6.02-3.09,11.7-7.12,15.86Z"/>
      <path class="cls-3" d="M386.29,183.32c4.16,1.05,8.46,1.22,13.06.94.66.76,1.28-.18.35-.59l-9.37-.7c-1.81-.14-3.41-.43-5.26-1.31l7.64-1.08c-2.89-.98-5.65.16-8.82.01,6.63-3.04,14.76-1.96,20.28,2.92l3.57,3.16-6.35,1.47c-5.11,1.18-10.74.24-15.06-2.22l-.78-.45c.47-.19.4-.52.86-.19.06.05.16.15.24.28,2.06.32,4.19,1.8,6.64.8-2.75-.83-5.22-.98-7.4-2.52l-.25-.17-.7-.27-.46-.43c.26.38.64,0,.26-.26.26.33.37.41.44.45l.88.16h.23Z"/>
      <path class="cls-3" d="M382.86,158.75c-2.29,3.54-.65,9.82-2.62,15.03l-.02-8.08c-.14-.17-.34-.25-.39-.26l-1.19,9.12c-2.59-8.39-.4-15.74,6.58-21.96l.99,8.1c.45,3.64-.58,7.23-2.54,10.16l.35-6.75-1.4,5.46c-.75-3.77.23-6.81.24-10.82Z"/>
      <path class="cls-6" d="M408.41,167.44l-1.02-.56c1-.84,4.14,1.11,7.03-.3l-5.2-.91,7.31-1.46c.95-.19,2.87.79,2.46,1.6-1.82,1.87-4.77,2-7.16,1.85l-3.43-.23Z"/>
      <path class="cls-5" d="M405.89,159.53c-1.67,2.42-2.78,4.41-5.47,5.57.51-2.5,4.06-6.18,5.47-5.57Z"/>
      <path class="cls-5" d="M399.44,158.87c.41,1.87.71,3.86-.57,5.77-.79-2.38-.46-4.51.06-6.85.07-.26.44-.27.58-.02-.1.25-.11.84-.06,1.11Z"/>
      <path class="cls-5" d="M407.02,168.34c-2.42.06-4.3-.73-6.37-1.21,2.25-.87,4.62-.75,6.37,1.21Z"/>
      <path class="cls-3" d="M382.59,170.33c.29.97-.86.97-.57,0-.11-.64.68-.64.57,0Z"/>
      <path class="cls-5" d="M360.65,168.61l-.03-2.22c.6-.44,1.19-.82,1.41-2.04-.73.08-1.06.41-1.45.62v-4.35s5.73-3.25,5.73-3.25c-.35,2.36-1.23,4.28-2.13,6.24l-.1.27-2.56,4.46c-.19.32-.65.32-.87.26ZM363.74,163.23c.15-.17.11-.51-.09-.63-.24-.13-.71.36-1.42,1.05-.21.21.43.59.71.25l.55-.67h.25Z"/>
      <path class="cls-7" d="M360.62,166.39l-.04-1.41c.39-.21.72-.55,1.45-.62-.22,1.22-.81,1.6-1.41,2.04Z"/>
      <path class="cls-6" d="M419.92,146.6c-3.06,3.3-5.56,6.38-9.18,8.89l2.46-3.77c-1.3-.08-1.26,1.17-2.23,1.79,1.45-5.8,9.08-10.85,10.27-8.63.71,1.32-.6,3.39-1.81,3.72.06-.54,1.06-1.13.5-2Z"/>
      <path class="cls-6" d="M406.43,161.65v-.54c3.22-2.77,8.89-8.79,10.57-7.4,1.27,1.05-.37,4.28-3.14,5.07.51-1.15,1.71-1.59,1.51-3.22-2.37,2.7-4.87,3.75-6.51,5.35l.23.23,4.83-2.38c-1.25,1.64-3.22,2.56-5.02,2.77-.06-.25-.19-.33-.28-.39-.76.05-1.5.22-2.19.49ZM415.8,154.94l-.24.24.24.24.24-.24-.24-.24Z"/>
      <path class="cls-6" d="M402.48,155c-.74-2.17,1.88-3.57-.49-4.86,1.14-2.61,2.44-4.97,4.99-6.63.96,1.45.41,2.79-.26,3.97l-4.24,7.51ZM403.23,148.84c-.26.25-.25,1.1.13,1.26.07.03.93-.62.72-1.13-.11-.25-.52-.45-.85-.13Z"/>
      <polygon class="cls-6" points="401.92 151.12 401.93 151.43 401.93 151.75 401.92 152.06 401.92 151.75 401.92 151.43 401.92 151.12"/>
      <polygon class="cls-6" points="401.45 152.55 401.45 152.86 401.45 153.19 401.45 153.5 401.44 153.19 401.44 152.86 401.45 152.55"/>
      <rect class="cls-1" x="415.63" y="155.01" width=".34" height=".34" transform="translate(12.11 339.59) rotate(-45.02)"/>
      <path class="cls-1" d="M403.23,148.84c.33-.32.74-.13.85.13.21.51-.65,1.16-.72,1.13-.38-.16-.39-1.01-.13-1.26Z"/>
    </g>
    <path class="cls-2" d="M274.83,175.53l.03,2.28-.03,9.18v2.3s-.07,14.58-.07,14.58c-3.54-.77-6.88-2.44-10.51-3.03l.05-8.12-.05-1.94-.02-16.67.11-2.38-.1-46.89c-.01-5.61-1.16-11.39-6.4-11.8l-7.48-.58c-.57-.16-.49-2.36.1-2.4l18.67.52,19.6-.53c.66.07.63,2.46-.08,2.5l-7.77.49c-5.01.32-6.03,6.67-6.03,12.28l-.02,50.2Z"/>
    <g>
      <path class="cls-2" d="M188.34,161.45l-10.58,2.64-.18-42.76c-.02-4.24-2.62-7.12-6.73-7.38-4.93-.32-9.86-.32-14.77.08-11.78.97-16.02,11.65-17.74,22.63-.52.53-1.96.44-2.71,0l2.79-28.56c.07-.69-.17-1.51.36-1.81,2.29-1.27,1.82,2.76,5.94,3.34,5.64.79,11.01.62,16.77.62h43.95c5.79-.01,11.14.27,16.81-.62,4.56-.71,4.46-2.66,5.6-3.4.45-.29,2-.2,1.92.35-1.47,10.1-2.02,19.92-1.6,29.85-.34.65-2.55.66-2.63-.02-1.33-10.7-2.35-20.71-14.81-22.22-5.17-.63-10.37-.59-15.5-.17-4.24.34-6.81,3.61-6.83,7.76l-.08,39.68Z"/>
      <path class="cls-2" d="M188.23,163.85v42.22c-.01,6.32.72,14.33,6.92,14.73l9.27.6c.24.87.29,1.56,0,2.5h-43.05c-.19-.79-.21-1.63.07-2.52l8.95-.55c6.35-.39,7.28-8.6,7.29-15.23l-.03-39.08c3.41-1.13,6.99-2.12,10.57-2.67Z"/>
    </g>
  </g>
</svg>